<svg width="46" height="48" viewBox="0 0 46 48" fill="none" xmlns="http://www.w3.org/2000/svg">
<path d="M34.2031 25.6875C28.0515 25.6875 23.0469 30.6922 23.0469 36.8438C23.0469 42.9953 28.0515 48 34.2031 48C40.4064 48 45.4531 42.9953 45.4531 36.8438C45.4531 30.6922 40.4064 25.6875 34.2031 25.6875ZM37.6272 35.494L33.8772 39.994C33.6083 40.3166 33.2114 40.5 32.797 40.5C32.7431 40.5 32.689 40.4969 32.6347 40.4906C32.1633 40.4359 31.7513 40.1471 31.539 39.7226L30.039 36.7226C29.6917 36.028 29.9733 35.1833 30.6679 34.836C31.3625 34.4885 32.2073 34.7702 32.5546 35.4649L33.093 36.5417L35.4665 33.6935C35.9638 33.0969 36.8505 33.0164 37.4471 33.5134C38.0438 34.0106 38.1244 34.8973 37.6272 35.494Z" fill="#753ED6"/>
<path d="M33.597 8.01122L27.8912 2.11069C27.8885 2.10788 27.8857 2.10497 27.883 2.10216C26.5693 0.766219 24.7412 0 22.8678 0H4.76562C2.43941 0 0.546875 1.89253 0.546875 4.21875V40.6875C0.546875 43.0137 2.43941 44.9062 4.76562 44.9062H22.8022C21.1857 42.627 20.2344 39.8445 20.2344 36.8438C20.2344 29.1413 26.5007 22.875 34.2031 22.875C34.6777 22.875 35.1467 22.8988 35.6094 22.9447V12.9356C35.6094 11.0823 34.8947 9.33375 33.597 8.01122ZM15.4531 31.4062H7.95312C7.1765 31.4062 6.54688 30.7766 6.54688 30C6.54688 29.2234 7.1765 28.5938 7.95312 28.5938H15.4531C16.2297 28.5938 16.8594 29.2234 16.8594 30C16.8594 30.7766 16.2297 31.4062 15.4531 31.4062ZM15.4531 23.9062H7.95312C7.1765 23.9062 6.54688 23.2766 6.54688 22.5C6.54688 21.7234 7.1765 21.0938 7.95312 21.0938H15.4531C16.2297 21.0938 16.8594 21.7234 16.8594 22.5C16.8594 23.2766 16.2297 23.9062 15.4531 23.9062ZM15.4531 16.4062H7.95312C7.1765 16.4062 6.54688 15.7766 6.54688 15C6.54688 14.2234 7.1765 13.5938 7.95312 13.5938H15.4531C16.2297 13.5938 16.8594 14.2234 16.8594 15C16.8594 15.7766 16.2297 16.4062 15.4531 16.4062ZM24.4531 23.9062H22.9531C22.1765 23.9062 21.5469 23.2766 21.5469 22.5C21.5469 21.7234 22.1765 21.0938 22.9531 21.0938H24.4531C25.2297 21.0938 25.8594 21.7234 25.8594 22.5C25.8594 23.2766 25.2297 23.9062 24.4531 23.9062ZM24.4531 16.4062H22.9531C22.1765 16.4062 21.5469 15.7766 21.5469 15C21.5469 14.2234 22.1765 13.5938 22.9531 13.5938H24.4531C25.2297 13.5938 25.8594 14.2234 25.8594 15C25.8594 15.7766 25.2297 16.4062 24.4531 16.4062Z" fill="#753ED6"/>
</svg>
