<svg width="130" height="130" viewBox="0 0 130 130" fill="none" xmlns="http://www.w3.org/2000/svg">
<path fill-rule="evenodd" clip-rule="evenodd" d="M0 0H130V130H0V0Z" fill="white"/>
<path fill-rule="evenodd" clip-rule="evenodd" d="M23.0486 72.4066C22.045 72.4066 21.2593 73.1087 21.2593 74.1331C21.2593 75.1583 22.0491 75.8563 23.0486 75.8563C24.0474 75.8563 24.8378 75.1535 24.8378 74.1331C24.8378 73.1087 24.0514 72.4066 23.0486 72.4066ZM23.0486 75.3626C22.333 75.3626 21.8022 74.8399 21.8022 74.1331C21.8022 73.427 22.3289 72.9003 23.0486 72.9003C23.7594 72.9003 24.2942 73.4351 24.2942 74.1331C24.2942 74.8271 23.7547 75.3626 23.0486 75.3626ZM40.4589 66.3678H31.7487L32.7387 51.2282L27.0823 66.3678H18.9939L31.8276 32.1479H40.434L39.4405 47.4952L45.2042 32.1479H53.2933L40.4589 66.3678ZM41.5097 66.3678L54.3427 32.1479H62.4311L49.5981 66.3678H41.5097Z" fill="black"/>
<path fill-rule="evenodd" clip-rule="evenodd" d="M18.0611 54.5726C6.75838 67.846 -3.90365 85.5073 5.51406 93.6402C14.6397 101.522 26.0463 96.8552 33.8238 93.7441C41.6013 90.6329 127.566 53.302 127.566 53.302C128.395 52.8872 128.24 52.3686 127.203 52.6276C126.785 52.7321 33.6168 77.9813 33.6168 77.9813C21.7941 81.3002 8.31361 74.067 18.0611 54.5726Z" fill="black"/>
<path fill-rule="evenodd" clip-rule="evenodd" d="M23.3534 74.2546C23.6043 74.2424 23.8006 74.1129 23.8006 73.7656C23.8006 73.3178 23.5079 73.2051 23.0189 73.2051H22.3162V75.0618H22.7849V74.2714H22.8638L23.2907 75.0618H23.8296L23.3534 74.2546ZM23.0526 73.9538H22.7856V73.5228H23.0108C23.1491 73.5228 23.3076 73.539 23.3076 73.7191C23.3076 73.9119 23.2158 73.9538 23.0526 73.9538ZM104.356 32.0435C103.353 32.0435 102.567 32.7462 102.567 33.77C102.567 34.7944 103.357 35.4925 104.356 35.4925C105.355 35.4925 106.146 34.7897 106.146 33.77C106.146 32.7462 105.36 32.0435 104.356 32.0435ZM104.356 35.0001C103.641 35.0001 103.11 34.4775 103.11 33.7707C103.11 33.0645 103.637 32.5378 104.356 32.5378C105.067 32.5378 105.603 33.0726 105.603 33.7707C105.603 34.4647 105.063 35.0001 104.356 35.0001Z" fill="black"/>
<path fill-rule="evenodd" clip-rule="evenodd" d="M104.662 33.8913C104.913 33.8792 105.11 33.7497 105.11 33.4024C105.11 32.9546 104.816 32.8419 104.328 32.8419H103.625V34.698H104.093V33.9082H104.173L104.599 34.698H105.139L104.662 33.8913ZM104.36 33.5906H104.093V33.1596H104.319C104.457 33.1596 104.616 33.1765 104.616 33.3565C104.616 33.5487 104.524 33.5906 104.36 33.5906ZM99.0269 37.8516L101.201 32.1479H76.5206L68.0464 42.4141L71.9588 32.1479H63.7665L51.036 66.3678H59.1244L64.5596 52.0577L64.9319 66.3678L89.7502 66.3138L92.1127 59.7314H82.6768L85.7771 51.4359H93.554L95.9468 45.0585H88.17L90.836 37.8516H99.0269ZM72.9563 64.0862L72.4376 46.2509L84.667 32.8237L72.9563 64.0862Z" fill="black"/>
</svg>
